<?xml version="1.0" encoding="UTF-8" standalone="no"?>
<!-- Generator: Adobe Illustrator 18.1.1, SVG Export Plug-In . SVG Version: 6.00 Build 0)  -->

<svg
   xmlns:dc="http://purl.org/dc/elements/1.1/"
   xmlns:cc="http://creativecommons.org/ns#"
   xmlns:rdf="http://www.w3.org/1999/02/22-rdf-syntax-ns#"
   xmlns:svg="http://www.w3.org/2000/svg"
   xmlns="http://www.w3.org/2000/svg"
   xmlns:sodipodi="http://sodipodi.sourceforge.net/DTD/sodipodi-0.dtd"
   xmlns:inkscape="http://www.inkscape.org/namespaces/inkscape"
   version="1.1"
   id="Capa_1"
   x="0px"
   y="0px"
   viewBox="0 0 15.304 15.304"
   style="enable-background:new 0 0 15.304 15.304;"
   xml:space="preserve"
   sodipodi:docname="arrow.svg"
   inkscape:version="0.92.4 (5da689c313, 2019-01-14)"><metadata
   id="metadata41"><rdf:RDF><cc:Work
       rdf:about=""><dc:format>image/svg+xml</dc:format><dc:type
         rdf:resource="http://purl.org/dc/dcmitype/StillImage" /></cc:Work></rdf:RDF></metadata><defs
   id="defs39" /><sodipodi:namedview
   pagecolor="#ffffff"
   bordercolor="#666666"
   borderopacity="1"
   objecttolerance="10"
   gridtolerance="10"
   guidetolerance="10"
   inkscape:pageopacity="0"
   inkscape:pageshadow="2"
   inkscape:window-width="1280"
   inkscape:window-height="657"
   id="namedview37"
   showgrid="false"
   inkscape:zoom="15.420805"
   inkscape:cx="7.652"
   inkscape:cy="7.652"
   inkscape:window-x="2722"
   inkscape:window-y="586"
   inkscape:window-maximized="1"
   inkscape:current-layer="Capa_1" />
<g
   id="g4"
   transform="rotate(180,7.6521329,7.6517704)">
	<path
   style="fill:#030104"
   d="M 12.675,5.92 7.954,0.216 c 0,0 -0.387,-0.454 -0.793,-0.047 -0.558,0.559 -4.574,5.889 -4.574,5.889 0,0 -0.713,0.708 0.232,0.708 0.948,0 2.457,0 2.457,0 0,0 0,0.411 0,1.04 0,1.939 0,5.714 0,7.16 0,0 -0.011,0.338 0.428,0.338 0.437,0 3.129,0 3.743,0 0.611,0 0.506,-0.404 0.506,-0.404 0,-1.484 0,-5.135 0,-7.144 0,-0.701 0,-1.16 0,-1.16 0,0 1.883,0 2.66,0 0.777,0 0.062,-0.676 0.062,-0.676 z"
   id="path2"
   inkscape:connector-curvature="0" />
</g>
<g
   id="g6">
</g>
<g
   id="g8">
</g>
<g
   id="g10">
</g>
<g
   id="g12">
</g>
<g
   id="g14">
</g>
<g
   id="g16">
</g>
<g
   id="g18">
</g>
<g
   id="g20">
</g>
<g
   id="g22">
</g>
<g
   id="g24">
</g>
<g
   id="g26">
</g>
<g
   id="g28">
</g>
<g
   id="g30">
</g>
<g
   id="g32">
</g>
<g
   id="g34">
</g>
</svg>