<?xml version="1.0" encoding="UTF-8" standalone="no"?>
<svg
   xmlns:dc="http://purl.org/dc/elements/1.1/"
   xmlns:cc="http://creativecommons.org/ns#"
   xmlns:rdf="http://www.w3.org/1999/02/22-rdf-syntax-ns#"
   xmlns:svg="http://www.w3.org/2000/svg"
   xmlns="http://www.w3.org/2000/svg"
   xmlns:sodipodi="http://sodipodi.sourceforge.net/DTD/sodipodi-0.dtd"
   xmlns:inkscape="http://www.inkscape.org/namespaces/inkscape"
   inkscape:version="1.0 (4035a4fb49, 2020-05-01)"
   sodipodi:docname="scatteredcloud_night.svg"
   id="svg3907"
   version="1.1"
   viewBox="-2 0 512 512">
  <metadata
     id="metadata3913">
    <rdf:RDF>
      <cc:Work
         rdf:about="">
        <dc:format>image/svg+xml</dc:format>
        <dc:type
           rdf:resource="http://purl.org/dc/dcmitype/StillImage" />
        <dc:title />
      </cc:Work>
    </rdf:RDF>
  </metadata>
  <defs
     id="defs3911" />
  <sodipodi:namedview
     inkscape:document-rotation="0"
     inkscape:current-layer="layer1"
     inkscape:window-maximized="1"
     inkscape:window-y="-8"
     inkscape:window-x="-8"
     inkscape:cy="256"
     inkscape:cx="-293.9661"
     inkscape:zoom="0.4487518"
     showgrid="false"
     id="namedview3909"
     inkscape:window-height="1017"
     inkscape:window-width="1920"
     inkscape:pageshadow="2"
     inkscape:pageopacity="0"
     guidetolerance="10"
     gridtolerance="10"
     objecttolerance="10"
     borderopacity="1"
     bordercolor="#666666"
     pagecolor="#ffffff" />
  <g
     inkscape:label="back"
     id="layer1"
     inkscape:groupmode="layer">
    <ellipse
       ry="135.9326"
       rx="129.24739"
       cy="198.32793"
       cx="240.89595"
       id="path204"
       style="fill:#ececec;fill-rule:evenodd" />
    <ellipse
       ry="123.67638"
       rx="127.01899"
       cy="161.55925"
       cx="167.35866"
       id="path216"
       style="fill:#ffffff" />
  </g>
  <g
     inkscape:label="fore"
     id="layer2"
     inkscape:groupmode="layer">
    <path
       style="fill:#cccccc;stroke-width:0.594"
       inkscape:connector-curvature="0"
       id="path3855"
       d="m 67.745166,164.05619 c 1.86886,-31.37594 27.492093,-56.23716 58.834694,-56.23716 25.27799,0 46.83437,16.17103 55.21203,38.88951 21.76812,0.26668 39.3359,18.27632 39.3359,40.46147 0,22.35357 -17.83016,40.47549 -39.82383,40.47549 -9.20623,0 -103.006154,0 -112.465554,0 -17.28469,0 -31.29657,-14.24116 -31.29657,-31.80869 0,-17.19559 13.42498,-31.19348 30.20333,-31.78062 z m 0,0" />
    <path
       d="m 347.72735,233.97836 c 1.86886,-31.37594 27.49209,-56.23715 58.83469,-56.23715 25.27799,0 46.83437,16.17102 55.21203,38.8895 21.76812,0.26668 39.3359,18.27632 39.3359,40.46147 0,22.35357 -17.83016,40.47549 -39.82383,40.47549 -9.20623,0 -103.00615,0 -112.46555,0 -17.28469,0 -31.29657,-14.24116 -31.29657,-31.80869 0,-17.19559 13.42498,-31.19348 30.20333,-31.78062 z m 0,0"
       id="path3855-2"
       inkscape:connector-curvature="0"
       style="fill:#999999;stroke-width:0.594" />
    <path
       style="fill:#b3b3b3;stroke-width:0.594"
       inkscape:connector-curvature="0"
       id="path3855-2-1"
       d="m 137.22383,354.70925 c 1.86886,-31.37594 27.4921,-56.23715 58.8347,-56.23715 25.27799,0 46.83437,16.17102 55.21203,38.8895 21.76812,0.26668 39.3359,18.27632 39.3359,40.46147 0,22.35357 -17.83016,40.47549 -39.82383,40.47549 -9.20623,0 -103.00615,0 -112.46556,0 -17.28469,0 -31.29657,-14.24116 -31.29657,-31.80869 0,-17.19559 13.42498,-31.19348 30.20333,-31.78062 z m 0,0" />
  </g>
</svg>
