<?xml version="1.0" encoding="UTF-8" standalone="no"?>
<svg
   xmlns:dc="http://purl.org/dc/elements/1.1/"
   xmlns:cc="http://creativecommons.org/ns#"
   xmlns:rdf="http://www.w3.org/1999/02/22-rdf-syntax-ns#"
   xmlns:svg="http://www.w3.org/2000/svg"
   xmlns="http://www.w3.org/2000/svg"
   xmlns:sodipodi="http://sodipodi.sourceforge.net/DTD/sodipodi-0.dtd"
   xmlns:inkscape="http://www.inkscape.org/namespaces/inkscape"
   inkscape:version="1.0 (4035a4fb49, 2020-05-01)"
   sodipodi:docname="arrow.svg"
   xml:space="preserve"
   style="enable-background:new 0 0 15.304 15.304;"
   viewBox="0 0 15.304 15.304"
   y="0px"
   x="0px"
   id="Capa_1"
   version="1.1"><metadata
   id="metadata41"><rdf:RDF><cc:Work
       rdf:about=""><dc:format>image/svg+xml</dc:format><dc:type
         rdf:resource="http://purl.org/dc/dcmitype/StillImage" /></cc:Work></rdf:RDF></metadata><defs
   id="defs39" /><sodipodi:namedview
   inkscape:document-rotation="0"
   inkscape:current-layer="Capa_1"
   inkscape:window-maximized="1"
   inkscape:window-y="-8"
   inkscape:window-x="-8"
   inkscape:cy="7.652"
   inkscape:cx="7.652"
   inkscape:zoom="15.420805"
   showgrid="false"
   id="namedview37"
   inkscape:window-height="1017"
   inkscape:window-width="1920"
   inkscape:pageshadow="2"
   inkscape:pageopacity="0"
   guidetolerance="10"
   gridtolerance="10"
   objecttolerance="10"
   borderopacity="1"
   bordercolor="#666666"
   pagecolor="#ffffff" />
<g
   transform="rotate(180,7.6521329,7.6517704)"
   id="g4">
	<path
   inkscape:connector-curvature="0"
   id="path2"
   d="M 12.675,5.92 7.954,0.216 c 0,0 -0.387,-0.454 -0.793,-0.047 -0.558,0.559 -4.574,5.889 -4.574,5.889 0,0 -0.713,0.708 0.232,0.708 0.948,0 2.457,0 2.457,0 0,0 0,0.411 0,1.04 0,1.939 0,5.714 0,7.16 0,0 -0.011,0.338 0.428,0.338 0.437,0 3.129,0 3.743,0 0.611,0 0.506,-0.404 0.506,-0.404 0,-1.484 0,-5.135 0,-7.144 0,-0.701 0,-1.16 0,-1.16 0,0 1.883,0 2.66,0 0.777,0 0.062,-0.676 0.062,-0.676 z"
   style="fill:#030104" />
</g>
<g
   id="g6">
</g>
<g
   id="g8">
</g>
<g
   id="g10">
</g>
<g
   id="g12">
</g>
<g
   id="g14">
</g>
<g
   id="g16">
</g>
<g
   id="g18">
</g>
<g
   id="g20">
</g>
<g
   id="g22">
</g>
<g
   id="g24">
</g>
<g
   id="g26">
</g>
<g
   id="g28">
</g>
<g
   id="g30">
</g>
<g
   id="g32">
</g>
<g
   id="g34">
</g>
<path
   id="path118"
   d="M 7.4023081,15.060822 C 7.1913194,14.845656 2.6868936,9.4130631 2.4822223,9.1269198 2.2291242,8.7730738 2.3017333,8.7544068 3.9312114,8.7544068 H 5.382339 v -4.271992 c 0,-3.89419454 0.00948,-4.27986273 0.1072084,-4.36099153 0.1575468,-0.13078809 4.2320449,-0.13078809 4.3896872,0 0.097768,0.0811127 0.1072739,0.45894957 0.1072739,4.26372033 v 4.1747208 h 1.3473675 c 1.115431,0 1.372217,0.017405 1.49172,0.1011082 0.122912,0.086091 0.133252,0.1222096 0.06962,0.243178 -0.180126,0.3424425 -4.3284559,5.7156014 -4.7282045,6.1242474 -0.2638746,0.269748 -0.5212869,0.280663 -0.7647054,0.03242 z"
   style="fill:#ffffff;stroke-width:0.0648475" /></svg>
