<?xml version="1.0" encoding="UTF-8" standalone="no"?>
<svg
   xmlns:dc="http://purl.org/dc/elements/1.1/"
   xmlns:cc="http://creativecommons.org/ns#"
   xmlns:rdf="http://www.w3.org/1999/02/22-rdf-syntax-ns#"
   xmlns:svg="http://www.w3.org/2000/svg"
   xmlns="http://www.w3.org/2000/svg"
   xmlns:sodipodi="http://sodipodi.sourceforge.net/DTD/sodipodi-0.dtd"
   xmlns:inkscape="http://www.inkscape.org/namespaces/inkscape"
   inkscape:version="1.0 (4035a4fb49, 2020-05-01)"
   sodipodi:docname="rain-light.svg"
   id="svg4043"
   version="1.1"
   viewBox="-2 0 512 512">
  <metadata
     id="metadata4049">
    <rdf:RDF>
      <cc:Work
         rdf:about="">
        <dc:format>image/svg+xml</dc:format>
        <dc:type
           rdf:resource="http://purl.org/dc/dcmitype/StillImage" />
      </cc:Work>
    </rdf:RDF>
  </metadata>
  <defs
     id="defs4047" />
  <sodipodi:namedview
     inkscape:document-rotation="0"
     inkscape:current-layer="svg4043"
     inkscape:window-maximized="1"
     inkscape:window-y="-8"
     inkscape:window-x="-8"
     inkscape:cy="256"
     inkscape:cx="256"
     inkscape:zoom="0.4609375"
     showgrid="false"
     id="namedview4045"
     inkscape:window-height="1017"
     inkscape:window-width="1920"
     inkscape:pageshadow="2"
     inkscape:pageopacity="0"
     guidetolerance="10"
     gridtolerance="10"
     objecttolerance="10"
     borderopacity="1"
     bordercolor="#666666"
     pagecolor="#ffffff" />
  <g
     transform="translate(2.1694915,75.932203)"
     id="g405">
    <path
       d="M 435.75391,131.35937 C 431.31641,58.070312 370.48437,0 296.07812,0 236.07031,0 184.89062,37.773438 165,90.839844 c -51.67578,0.625 -93.378906,42.683596 -93.378906,94.507816 0,52.21484 42.328126,94.54296 94.539066,94.54296 h 266.99609 c 41.03516,0 74.29687,-33.26562 74.29687,-74.29687 0,-40.16406 -31.87109,-72.86328 -71.69921,-74.23438 z m 0,0"
       fill="#6d6d6d"
       id="path3983" />
    <path
       d="m 507.45703,205.58984 c 0,41.03125 -33.26953,74.30469 -74.30078,74.30469 h -5.75781 c 5.38672,-10.28516 8.4375,-21.99609 8.4375,-34.40625 0,-40.16015 -31.8711,-72.86328 -71.70313,-74.23828 -4.4375,-73.285156 -65.27344,-131.363281 -139.67969,-131.363281 -10.03515,0 -19.8164,1.058593 -29.24218,3.0625 25.45312,-26.46875 61.23047,-42.94531275 100.86328,-42.94531275 74.41015,0 135.24609,58.06249975 139.68359,131.36328375 39.83203,1.35937 71.69922,34.0625 71.69922,74.22265 z m 0,0"
       fill="#565656"
       id="path3985" />
    <path
       d="m 398.71094,122.90234 c -3.49219,0 -6.65625,-2.3789 -7.50782,-5.92187 -1.29687,-5.39844 -3.07031,-10.71875 -5.27734,-15.81641 -1.69531,-3.917966 0.10547,-8.464841 4.02344,-10.160154 3.91406,-1.695312 8.46484,0.109375 10.15625,4.023438 2.55859,5.910156 4.61719,12.082036 6.12109,18.339846 1,4.15234 -1.55469,8.32422 -5.70703,9.32031 -0.60547,0.14453 -1.21094,0.21484 -1.80859,0.21484 z m 0,0"
       fill="#6d6d6d"
       id="path3987" />
    <path
       d="m 372.26953,74.644531 c -2.03125,0 -4.05469,-0.796875 -5.57422,-2.378906 -18.66797,-19.449219 -43.74609,-30.160156 -70.61719,-30.160156 -4.26562,0 -7.72656,-3.460938 -7.72656,-7.726563 0,-4.269531 3.46094,-7.726562 7.72656,-7.726562 31.11719,0 60.15625,12.398437 81.76563,34.914062 2.95703,3.078125 2.85547,7.96875 -0.22266,10.925782 -1.5,1.4375 -3.42578,2.152343 -5.35156,2.152343 z m 0,0"
       fill="#6d6d6d"
       id="path3989" />
    <path
       d="m 51.261719,173.70312 c 3.171875,-52.39453 46.660156,-93.910151 99.855471,-93.910151 42.90234,0 79.48828,27.003911 93.70703,64.941401 36.94531,0.44532 66.76172,30.51954 66.76172,67.56641 0,37.32813 -30.26172,67.58984 -67.58985,67.58984 -15.625,0 -174.824215,0 -190.878902,0 C 23.78125,279.89062 0,256.10937 0,226.77344 0,198.05859 22.785156,174.68359 51.261719,173.70312 Z m 0,0"
       fill="#a09d9c"
       id="path3991" />
    <path
       d="m 311.58594,212.30469 c 0,37.00781 -29.75782,67.07031 -66.65625,67.57031 11.0625,-12.03906 17.80859,-28.08203 17.80859,-45.70703 0,-37.04688 -29.80859,-67.11719 -66.76172,-67.56641 -14.21875,-37.92969 -50.80469,-64.94531 -93.71094,-64.94531 -5.070308,0 -10.04687,0.38281 -14.917964,1.10938 C 104.65234,88.414062 126.875,79.796875 151.11328,79.796875 c 42.90625,0 79.49219,26.996095 93.71094,64.941405 36.95312,0.44922 66.76172,30.50781 66.76172,67.56641 z m 0,0"
       fill="#82807f"
       id="path3993" />
    <path
       d="m 108.17969,350.65234 c 0,11.65625 -9.449221,21.10547 -21.105471,21.10547 -11.65625,0 -21.105469,-9.44922 -21.105469,-21.10547 0,-7.64843 9.089844,-22.66406 15.335938,-32.08203 2.742187,-4.125 8.796874,-4.125 11.535156,0 6.25,9.41797 15.339846,24.4336 15.339846,32.08203 z m 0,0"
       fill="#a0ecff"
       id="path3995" />
    <path
       d="m 108.17578,350.65234 c 0,11.65235 -9.441405,21.10547 -21.101561,21.10547 -2.921875,0 -5.707031,-0.59765 -8.238281,-1.67187 7.566406,-3.20313 12.871093,-10.70313 12.871093,-19.4336 0,-6.6875 -6.945312,-19.0039 -12.863281,-28.28906 0.84375,-1.33203 1.671875,-2.59766 2.453125,-3.78125 2.742187,-4.13281 8.800781,-4.14453 11.542969,-0.0117 6.25,9.41797 15.335936,24.4336 15.335936,32.08203 z m 0,0"
       fill="#60daff"
       id="path3997" />
    <path
       d="m 298.64062,350.65234 c 0,11.65625 -9.44921,21.10547 -21.10546,21.10547 -11.65625,0 -21.10547,-9.44922 -21.10547,-21.10547 0,-7.64843 9.08984,-22.66406 15.33984,-32.08203 2.73828,-4.125 8.79297,-4.125 11.53125,0 6.25391,9.41797 15.33984,24.4336 15.33984,32.08203 z m 0,0"
       fill="#a0ecff"
       id="path4003" />
    <path
       d="m 298.64062,350.65234 c 0,11.65235 -9.44531,21.10547 -21.10546,21.10547 -2.92188,0 -5.70313,-0.59765 -8.23829,-1.67187 7.56641,-3.20313 12.8711,-10.70313 12.8711,-19.4336 0,-6.6875 -6.94531,-19.0039 -12.86328,-28.28906 0.84765,-1.33203 1.67187,-2.59766 2.45703,-3.78125 2.73828,-4.13281 8.80078,-4.14453 11.54297,-0.0117 6.24609,9.41797 15.33593,24.4336 15.33593,32.08203 z m 0,0"
       fill="#60daff"
       id="path4005" />
    <path
       d="m 393.87109,350.65234 c 0,11.65625 -9.44922,21.10547 -21.10547,21.10547 -11.65625,0 -21.10546,-9.44922 -21.10546,-21.10547 0,-7.64843 9.08984,-22.66406 15.33984,-32.08203 2.73828,-4.125 8.79687,-4.125 11.53125,0 6.25391,9.41797 15.33984,24.4336 15.33984,32.08203 z m 0,0"
       fill="#a0ecff"
       id="path4007" />
    <path
       d="m 393.87109,350.65234 c 0,11.65235 -9.44531,21.10547 -21.10547,21.10547 -2.92187,0 -5.70312,-0.59765 -8.23828,-1.67187 7.57032,-3.20313 12.8711,-10.70313 12.8711,-19.4336 0,-6.6875 -6.94532,-19.0039 -12.86328,-28.28906 0.84765,-1.33203 1.67578,-2.59766 2.45703,-3.78125 2.73828,-4.13281 8.80078,-4.14453 11.54297,-0.0117 6.24609,9.41797 15.33593,24.4336 15.33593,32.08203 z m 0,0"
       fill="#60daff"
       id="path4009" />
    <path
       d="m 210.14188,354.2205 c 0,11.65625 -9.44922,21.10547 -21.10547,21.10547 -11.65625,0 -21.10547,-9.44922 -21.10547,-21.10547 0,-7.64844 9.08985,-22.66016 15.33594,-32.07812 2.74219,-4.12891 8.79687,-4.12891 11.53516,0 6.25,9.41796 15.33984,24.42968 15.33984,32.07812 z m 0,0"
       id="path4011"
       inkscape:connector-curvature="0"
       style="fill:#a0ecff" />
    <path
       d="m 210.14188,354.22047 c 0,11.65234 -9.4414,21.10156 -21.10156,21.10156 -2.92187,0 -5.70703,-0.59375 -8.23828,-1.66797 7.56641,-3.20703 12.87109,-10.70312 12.87109,-19.4375 0,-6.6875 -6.94531,-19.0039 -12.86328,-28.28906 0.84375,-1.32812 1.67188,-2.59765 2.45313,-3.77734 2.74218,-4.13672 8.80078,-4.14844 11.54297,-0.0156 6.25,9.42188 15.33593,24.4336 15.33593,32.08594 z m 0,0"
       id="path4013"
       inkscape:connector-curvature="0"
       style="fill:#60daff" />
  </g>
</svg>
