<?xml version="1.0" encoding="UTF-8" standalone="no"?>
<svg
   xmlns:dc="http://purl.org/dc/elements/1.1/"
   xmlns:cc="http://creativecommons.org/ns#"
   xmlns:rdf="http://www.w3.org/1999/02/22-rdf-syntax-ns#"
   xmlns:svg="http://www.w3.org/2000/svg"
   xmlns="http://www.w3.org/2000/svg"
   xmlns:sodipodi="http://sodipodi.sourceforge.net/DTD/sodipodi-0.dtd"
   xmlns:inkscape="http://www.inkscape.org/namespaces/inkscape"
   version="1.1"
   id="Capa_1"
   x="0px"
   y="0px"
   viewBox="0 0 15.304 15.304"
   style="enable-background:new 0 0 15.304 15.304;"
   xml:space="preserve"
   sodipodi:docname="arrow-thin.svg"
   inkscape:version="1.0 (4035a4fb49, 2020-05-01)"><g
   style="fill:none;image-rendering:auto"
   id="g60"><path
     id="path31"
     d="M 7.1980678,2.1399661 7.1332204,12.450711 3.112678,8.495017"
     style="fill:none;stroke:#000000;stroke-width:1px;stroke-linecap:butt;stroke-linejoin:miter;stroke-opacity:1" /><path
     id="path35"
     d="M 7.9864415,2.1399662 8.0534967,12.450711 12.21095,8.4950166"
     style="fill:none;stroke:#000000;stroke-width:1.01688px;stroke-linecap:butt;stroke-linejoin:miter;stroke-opacity:1" /></g><metadata
   id="metadata41"><rdf:RDF><cc:Work
       rdf:about=""><dc:format>image/svg+xml</dc:format><dc:type
         rdf:resource="http://purl.org/dc/dcmitype/StillImage" /><dc:title /></cc:Work></rdf:RDF></metadata><defs
   id="defs39"><clipPath
     id="clipPath43"
     clipPathUnits="userSpaceOnUse"><g
       id="use45"
       inkscape:label="Clip"><path
         style="fill:none;stroke:#000000;stroke-width:1px;stroke-linecap:butt;stroke-linejoin:miter;stroke-opacity:1"
         d="M 7.1980678,2.1399661 7.1332204,12.450711 3.112678,8.495017"
         id="path50" /><path
         style="fill:none;stroke:#000000;stroke-width:1px;stroke-linecap:butt;stroke-linejoin:miter;stroke-opacity:1"
         d="M 8.5794921,2.1399662 8.6443391,12.450711 12.664882,8.4950166"
         id="path52" /></g></clipPath></defs><sodipodi:namedview
   pagecolor="#ffffff"
   bordercolor="#666666"
   borderopacity="1"
   objecttolerance="10"
   gridtolerance="10"
   guidetolerance="10"
   inkscape:pageopacity="0"
   inkscape:pageshadow="2"
   inkscape:window-width="1920"
   inkscape:window-height="1017"
   id="namedview37"
   showgrid="false"
   inkscape:zoom="15.420805"
   inkscape:cx="-1.3942203"
   inkscape:cy="-0.12969492"
   inkscape:window-x="-8"
   inkscape:window-y="-8"
   inkscape:window-maximized="1"
   inkscape:current-layer="Capa_1"
   inkscape:document-rotation="0" />

<g
   id="g6">
</g>
<g
   id="g8">
</g>
<g
   id="g10">
</g>
<g
   id="g12">
</g>
<g
   id="g14">
</g>
<g
   id="g16">
</g>
<g
   id="g18">
</g>
<g
   id="g20">
</g>
<g
   id="g22">
</g>
<g
   id="g24">
</g>
<g
   id="g26">
</g>
<g
   id="g28">
</g>
<g
   id="g30">
</g>
<g
   id="g32">
</g>
<g
   id="g34">
</g>
<path
   id="path62"
   d="M 5.1741011,11.158938 2.8208644,8.8296045 3.1436319,8.4992094 3.4663993,8.1688143 5.0246947,9.7261362 c 0.8570624,0.8565268 1.5799624,1.5573218 1.6064443,1.5573218 0.026482,0 0.048196,-1.072415 0.048253,-2.3831444 5.73e-5,-1.3107293 0.01937,-3.3680149 0.042918,-4.5717458 L 6.7651242,2.1399661 H 7.6300706 8.495017 v 4.5717458 c 0,2.5144601 0.023988,4.5717461 0.053307,4.5717461 0.029319,0 0.7733942,-0.685762 1.653501,-1.5239156 0.880107,-0.8381534 1.623226,-1.5239153 1.651377,-1.5239153 0.02815,0 0.188433,0.1393469 0.356185,0.3096597 l 0.305004,0.3096595 -2.435646,2.3166627 c -1.3396053,1.274164 -2.4616922,2.316662 -2.4935266,2.316662 -0.031834,0 -1.1168373,-1.0482 -2.4111173,-2.329333 z"
   style="fill:#000000;stroke-width:0.0648475" /></svg>
