<?xml version="1.0" encoding="UTF-8" standalone="no"?>
<svg
   xmlns:dc="http://purl.org/dc/elements/1.1/"
   xmlns:cc="http://creativecommons.org/ns#"
   xmlns:rdf="http://www.w3.org/1999/02/22-rdf-syntax-ns#"
   xmlns:svg="http://www.w3.org/2000/svg"
   xmlns="http://www.w3.org/2000/svg"
   xmlns:sodipodi="http://sodipodi.sourceforge.net/DTD/sodipodi-0.dtd"
   xmlns:inkscape="http://www.inkscape.org/namespaces/inkscape"
   inkscape:version="1.0 (4035a4fb49, 2020-05-01)"
   sodipodi:docname="arrow-thin.svg"
   xml:space="preserve"
   style="enable-background:new 0 0 15.304 15.304;"
   viewBox="0 0 15.304 15.304"
   y="0px"
   x="0px"
   id="Capa_1"
   version="1.1"><metadata
   id="metadata41"><rdf:RDF><cc:Work
       rdf:about=""><dc:format>image/svg+xml</dc:format><dc:type
         rdf:resource="http://purl.org/dc/dcmitype/StillImage" /><dc:title /></cc:Work></rdf:RDF></metadata><defs
   id="defs39"><clipPath
     clipPathUnits="userSpaceOnUse"
     id="clipPath43"><g
       inkscape:label="Clip"
       id="use45"><path
         id="path50"
         d="M 7.1980678,2.1399661 7.1332204,12.450711 3.112678,8.495017"
         style="fill:none;stroke:#000000;stroke-width:1px;stroke-linecap:butt;stroke-linejoin:miter;stroke-opacity:1" /><path
         id="path52"
         d="M 8.5794921,2.1399662 8.6443391,12.450711 12.664882,8.4950166"
         style="fill:none;stroke:#000000;stroke-width:1px;stroke-linecap:butt;stroke-linejoin:miter;stroke-opacity:1" /></g></clipPath></defs><sodipodi:namedview
   inkscape:document-rotation="0"
   inkscape:current-layer="Capa_1"
   inkscape:window-maximized="1"
   inkscape:window-y="-8"
   inkscape:window-x="-8"
   inkscape:cy="-0.12969492"
   inkscape:cx="-1.3942203"
   inkscape:zoom="15.420805"
   showgrid="false"
   id="namedview37"
   inkscape:window-height="1017"
   inkscape:window-width="1920"
   inkscape:pageshadow="2"
   inkscape:pageopacity="0"
   guidetolerance="10"
   gridtolerance="10"
   objecttolerance="10"
   borderopacity="1"
   bordercolor="#666666"
   pagecolor="#ffffff" />

<g
   id="g6">
</g>
<g
   id="g8">
</g>
<g
   id="g10">
</g>
<g
   id="g12">
</g>
<g
   id="g14">
</g>
<g
   id="g16">
</g>
<g
   id="g18">
</g>
<g
   id="g20">
</g>
<g
   id="g22">
</g>
<g
   id="g24">
</g>
<g
   id="g26">
</g>
<g
   id="g28">
</g>
<g
   id="g30">
</g>
<g
   id="g32">
</g>
<g
   id="g34">
</g>
<path
   style="fill:#000000;stroke-width:0.0648475"
   d="M 4.7850164,12.39104 2.4317797,10.061706 2.7545472,9.7313111 3.0773146,9.400916 4.63561,10.958238 c 0.8570624,0.856527 1.5799624,1.557322 1.6064443,1.557322 0.026482,0 0.048196,-1.072415 0.048253,-2.383145 5.73e-5,-1.310729 0.01937,-3.3680146 0.042918,-4.5717455 l 0.042814,-2.1886017 h 0.8649464 0.8649464 v 4.5717458 c 0,2.5144604 0.023988,4.5717464 0.053307,4.5717464 0.029319,0 0.7733942,-0.685762 1.653501,-1.523916 0.8801067,-0.838153 1.6232257,-1.5239152 1.6513767,-1.5239152 0.02815,0 0.188433,0.1393469 0.356185,0.3096597 l 0.305004,0.3096595 -2.4356457,2.316663 c -1.3396053,1.274164 -2.4616922,2.316662 -2.4935266,2.316662 -0.031834,0 -1.1168373,-1.0482 -2.4111173,-2.329333 z"
   id="path62" /><path
   id="path62-9"
   d="M 2.6725939,4.4065765 1.7676774,3.5280848 1.8917948,3.4034787 2.0159121,3.2788726 2.615141,3.8662055 c 0.3295758,0.323033 0.6075606,0.5873328 0.617744,0.5873328 0.010183,0 0.018533,-0.4044536 0.018555,-0.8987861 2.2e-5,-0.494332 0.00745,-1.2702226 0.016504,-1.7242011 l 0.016464,-0.8254155 h 0.3326076 0.3326075 v 1.7242013 c 0,0.9483107 0.00922,1.7242014 0.020499,1.7242014 0.011274,0 0.2974019,-0.2586302 0.6358392,-0.574734 0.3384375,-0.3161034 0.6241973,-0.5747337 0.6350226,-0.5747337 0.010825,0 0.07246,0.052554 0.1369678,0.1167861 L 5.4952379,3.5376424 4.5586316,4.4113553 C 4.0434982,4.8918969 3.6120095,5.2850679 3.5997679,5.2850679 c -0.012242,0 -0.42947,-0.395321 -0.927174,-0.8784914 z"
   style="fill:#000000;stroke-width:0.0246955" /><path
   style="fill:#000000;stroke-width:0.0343651"
   d="M 10.474513,6.6752205 9.1602875,5.5038982 9.3405453,5.3377568 9.520803,5.1716153 l 0.87027,0.7831105 c 0.478649,0.4307107 0.882371,0.7831104 0.89716,0.7831104 0.01478,0 0.02691,-0.5392714 0.02694,-1.1983814 3.2e-5,-0.6591093 0.01089,-1.6936301 0.02396,-2.2989348 l 0.02391,-1.100554 h 0.483053 0.48305 v 2.2989351 c 0,1.2644142 0.01336,2.2989351 0.02977,2.2989351 0.01637,0 0.431922,-0.3448402 0.92344,-0.766312 0.491519,-0.4214712 0.906533,-0.7663115 0.922254,-0.7663115 0.01572,0 0.105235,0.070072 0.198921,0.1557147 l 0.170337,0.1557143 -1.360249,1.1649505 c -0.748138,0.6407222 -1.374795,1.1649502 -1.392575,1.1649502 -0.01778,0 -0.623726,-0.5270947 -1.34655,-1.1713219 z"
   id="path62-9-3" /></svg>
