<?xml version="1.0" encoding="UTF-8" standalone="no"?>
<svg
   xmlns:dc="http://purl.org/dc/elements/1.1/"
   xmlns:cc="http://creativecommons.org/ns#"
   xmlns:rdf="http://www.w3.org/1999/02/22-rdf-syntax-ns#"
   xmlns:svg="http://www.w3.org/2000/svg"
   xmlns="http://www.w3.org/2000/svg"
   xmlns:sodipodi="http://sodipodi.sourceforge.net/DTD/sodipodi-0.dtd"
   xmlns:inkscape="http://www.inkscape.org/namespaces/inkscape"
   viewBox="-2 0 512 512"
   version="1.1"
   id="svg3907"
   sodipodi:docname="fewcloud.svg"
   inkscape:version="1.0 (4035a4fb49, 2020-05-01)">
  <metadata
     id="metadata3913">
    <rdf:RDF>
      <cc:Work
         rdf:about="">
        <dc:format>image/svg+xml</dc:format>
        <dc:type
           rdf:resource="http://purl.org/dc/dcmitype/StillImage" />
        <dc:title />
      </cc:Work>
    </rdf:RDF>
  </metadata>
  <defs
     id="defs3911" />
  <sodipodi:namedview
     pagecolor="#ffffff"
     bordercolor="#666666"
     borderopacity="1"
     objecttolerance="10"
     gridtolerance="10"
     guidetolerance="10"
     inkscape:pageopacity="0"
     inkscape:pageshadow="2"
     inkscape:window-width="1406"
     inkscape:window-height="480"
     id="namedview3909"
     showgrid="false"
     inkscape:zoom="0.4609375"
     inkscape:cx="-293.9661"
     inkscape:cy="256"
     inkscape:window-x="93"
     inkscape:window-y="129"
     inkscape:window-maximized="0"
     inkscape:current-layer="layer2"
     inkscape:document-rotation="0" />
  <g
     inkscape:groupmode="layer"
     id="layer1"
     inkscape:label="back">
    <g
       id="g160"
       transform="matrix(0.54661017,0,0,0.52705228,114.0678,121.07462)">
      <polygon
         id="polygon138"
         points="86.448,210.64 0,254.576 86.448,298.512 "
         style="fill:#f2b851" />
      <polygon
         id="polygon140"
         points="425.552,210.64 425.552,298.512 512,254.576 "
         style="fill:#f2b851" />
      <polygon
         id="polygon142"
         points="134.416,118.08 38.304,105.184 84.512,190.432 "
         style="fill:#f2b851" />
      <polygon
         id="polygon144"
         points="473.696,105.184 377.584,118.08 427.488,190.432 "
         style="fill:#f2b851" />
      <polygon
         id="polygon146"
         points="344.8,12.88 271.584,76.464 353.024,109.504 "
         style="fill:#f2b851" />
      <polygon
         id="polygon148"
         points="167.2,12.88 158.976,109.504 240.416,76.464 "
         style="fill:#f2b851" />
      <polygon
         id="polygon150"
         points="38.304,406.816 134.416,393.92 84.512,321.568 "
         style="fill:#f2b851" />
      <polygon
         id="polygon152"
         points="473.696,406.816 427.488,321.568 377.584,393.92 "
         style="fill:#f2b851" />
      <polygon
         id="polygon154"
         points="353.024,402.496 271.584,435.536 344.8,499.12 "
         style="fill:#f2b851" />
      <polygon
         id="polygon156"
         points="240.416,435.536 158.976,402.496 167.2,499.12 "
         style="fill:#f2b851" />
      <circle
         id="circle158"
         r="146.496"
         cy="256"
         cx="254.496"
         style="fill:#f2b851" />
    </g>
  </g>
  <g
     inkscape:groupmode="layer"
     id="layer2"
     inkscape:label="fore">
    <path
       d="m 27.478687,168.51524 c 1.449247,-26.83138 21.319325,-48.09165 45.624608,-48.09165 19.602354,0 36.318705,13.82879 42.815335,33.25668 16.88055,0.22805 30.50386,15.62913 30.50386,34.60094 0,19.11583 -13.82677,34.61293 -30.88223,34.61293 -7.13917,0 -79.878305,0 -87.213797,0 -13.403779,0 -24.2695885,-12.17844 -24.2695885,-27.20145 0,-14.70494 10.4106855,-26.67535 23.4218125,-27.17745 z m 0,0"
       id="path3855"
       inkscape:connector-curvature="0"
       style="fill:#cccccc;stroke-width:0.483718" />
    <path
       d="m 377.6151,312.31292 c 1.55967,-26.83138 22.94375,-48.09164 49.10096,-48.09164 21.09594,0 39.08598,13.82877 46.07762,33.25666 18.16675,0.22805 32.82808,15.62913 32.82808,34.60094 0,19.11583 -14.8803,34.61293 -33.23528,34.61293 -7.68313,0 -85.96458,0 -93.859,0 -14.42508,0 -26.1188,-12.17844 -26.1188,-27.20145 0,-14.70494 11.20392,-26.67535 25.20642,-27.17744 z m 0,0"
       id="path3855-2-1"
       inkscape:connector-curvature="0"
       style="fill:#b3b3b3;stroke-width:0.501808" />
  </g>
</svg>
