<?xml version="1.0" encoding="UTF-8" standalone="no"?>
<svg
   xmlns:dc="http://purl.org/dc/elements/1.1/"
   xmlns:cc="http://creativecommons.org/ns#"
   xmlns:rdf="http://www.w3.org/1999/02/22-rdf-syntax-ns#"
   xmlns:svg="http://www.w3.org/2000/svg"
   xmlns="http://www.w3.org/2000/svg"
   xmlns:sodipodi="http://sodipodi.sourceforge.net/DTD/sodipodi-0.dtd"
   xmlns:inkscape="http://www.inkscape.org/namespaces/inkscape"
   inkscape:version="1.0 (4035a4fb49, 2020-05-01)"
   sodipodi:docname="fewcloud.svg"
   id="svg3907"
   version="1.1"
   viewBox="-2 0 512 512">
  <metadata
     id="metadata3913">
    <rdf:RDF>
      <cc:Work
         rdf:about="">
        <dc:format>image/svg+xml</dc:format>
        <dc:type
           rdf:resource="http://purl.org/dc/dcmitype/StillImage" />
        <dc:title></dc:title>
      </cc:Work>
    </rdf:RDF>
  </metadata>
  <defs
     id="defs3911" />
  <sodipodi:namedview
     inkscape:document-rotation="0"
     inkscape:current-layer="layer2"
     inkscape:window-maximized="0"
     inkscape:window-y="602"
     inkscape:window-x="1185"
     inkscape:cy="256"
     inkscape:cx="-293.9661"
     inkscape:zoom="0.4609375"
     showgrid="false"
     id="namedview3909"
     inkscape:window-height="480"
     inkscape:window-width="1406"
     inkscape:pageshadow="2"
     inkscape:pageopacity="0"
     guidetolerance="10"
     gridtolerance="10"
     objecttolerance="10"
     borderopacity="1"
     bordercolor="#666666"
     pagecolor="#ffffff" />
  <g
     inkscape:label="back"
     id="layer1"
     inkscape:groupmode="layer">
    <g
       transform="matrix(0.54661017,0,0,0.52705228,114.0678,121.07462)"
       id="g160">
      <polygon
         style="fill:#f2b851"
         points="86.448,210.64 0,254.576 86.448,298.512 "
         id="polygon138" />
      <polygon
         style="fill:#f2b851"
         points="425.552,210.64 425.552,298.512 512,254.576 "
         id="polygon140" />
      <polygon
         style="fill:#f2b851"
         points="134.416,118.08 38.304,105.184 84.512,190.432 "
         id="polygon142" />
      <polygon
         style="fill:#f2b851"
         points="473.696,105.184 377.584,118.08 427.488,190.432 "
         id="polygon144" />
      <polygon
         style="fill:#f2b851"
         points="344.8,12.88 271.584,76.464 353.024,109.504 "
         id="polygon146" />
      <polygon
         style="fill:#f2b851"
         points="167.2,12.88 158.976,109.504 240.416,76.464 "
         id="polygon148" />
      <polygon
         style="fill:#f2b851"
         points="38.304,406.816 134.416,393.92 84.512,321.568 "
         id="polygon150" />
      <polygon
         style="fill:#f2b851"
         points="473.696,406.816 427.488,321.568 377.584,393.92 "
         id="polygon152" />
      <polygon
         style="fill:#f2b851"
         points="353.024,402.496 271.584,435.536 344.8,499.12 "
         id="polygon154" />
      <polygon
         style="fill:#f2b851"
         points="240.416,435.536 158.976,402.496 167.2,499.12 "
         id="polygon156" />
      <circle
         style="fill:#f2b851"
         cx="254.496"
         cy="256"
         r="146.496"
         id="circle158" />
    </g>
  </g>
  <g
     inkscape:label="fore"
     id="layer2"
     inkscape:groupmode="layer">
    <path
       style="fill:#cccccc;stroke-width:0.594"
       inkscape:connector-curvature="0"
       id="path3855"
       d="m 34.260205,176.66076 c 1.86886,-31.37594 27.492093,-56.23717 58.834693,-56.23717 25.277992,0 46.834372,16.17104 55.212032,38.88952 21.76812,0.26668 39.3359,18.27632 39.3359,40.46147 0,22.35357 -17.83016,40.47549 -39.82383,40.47549 -9.20623,0 -103.006155,0 -112.465555,0 -17.28469,0 -31.2965705,-14.24116 -31.2965705,-31.80869 0,-17.19559 13.4249805,-31.19348 30.2033305,-31.78062 z m 0,0" />
    <path
       style="fill:#b3b3b3;stroke-width:0.594"
       inkscape:connector-curvature="0"
       id="path3855-2-1"
       d="m 352.23913,320.45843 c 1.86886,-31.37594 27.4921,-56.23715 58.8347,-56.23715 25.27799,0 46.83437,16.17102 55.21203,38.8895 21.76812,0.26668 39.3359,18.27632 39.3359,40.46147 0,22.35357 -17.83016,40.47549 -39.82383,40.47549 -9.20623,0 -103.00615,0 -112.46556,0 -17.28469,0 -31.29657,-14.24116 -31.29657,-31.80869 0,-17.19559 13.42498,-31.19348 30.20333,-31.78062 z m 0,0" />
  </g>
</svg>
