<?xml version="1.0" encoding="UTF-8" standalone="no"?>
<svg
   xmlns:dc="http://purl.org/dc/elements/1.1/"
   xmlns:cc="http://creativecommons.org/ns#"
   xmlns:rdf="http://www.w3.org/1999/02/22-rdf-syntax-ns#"
   xmlns:svg="http://www.w3.org/2000/svg"
   xmlns="http://www.w3.org/2000/svg"
   xmlns:sodipodi="http://sodipodi.sourceforge.net/DTD/sodipodi-0.dtd"
   xmlns:inkscape="http://www.inkscape.org/namespaces/inkscape"
   inkscape:version="1.0 (4035a4fb49, 2020-05-01)"
   sodipodi:docname="overcast.svg"
   id="svg3907"
   version="1.1"
   viewBox="-2 0 512 512">
  <metadata
     id="metadata3913">
    <rdf:RDF>
      <cc:Work
         rdf:about="">
        <dc:format>image/svg+xml</dc:format>
        <dc:type
           rdf:resource="http://purl.org/dc/dcmitype/StillImage" />
        <dc:title />
      </cc:Work>
    </rdf:RDF>
  </metadata>
  <defs
     id="defs3911" />
  <sodipodi:namedview
     inkscape:document-rotation="0"
     inkscape:current-layer="svg3907"
     inkscape:window-maximized="1"
     inkscape:window-y="-8"
     inkscape:window-x="-8"
     inkscape:cy="256"
     inkscape:cx="256"
     inkscape:zoom="0.4609375"
     showgrid="false"
     id="namedview3909"
     inkscape:window-height="1017"
     inkscape:window-width="1920"
     inkscape:pageshadow="2"
     inkscape:pageopacity="0"
     guidetolerance="10"
     gridtolerance="10"
     objecttolerance="10"
     borderopacity="1"
     bordercolor="#666666"
     pagecolor="#ffffff" />
  <g
     transform="translate(-4.3389831,-2.1694915)"
     id="g353">
    <path
       d="m 444.43187,244.17293 c -4.4375,-73.28906 -65.26953,-131.35937 -139.67578,-131.35937 -60.00781,0 -111.1875,37.77344 -131.07812,90.83984 -51.67578,0.625 -93.37891,42.6836 -93.37891,94.50782 0,52.21484 42.32813,94.54296 94.53906,94.54296 h 266.9961 c 41.03515,0 74.29687,-33.26562 74.29687,-74.29687 0,-40.16406 -31.87109,-72.86328 -71.69922,-74.23438 z m 0,0"
       fill="#6d6d6d"
       id="path3847" />
    <path
       d="m 516.135,318.4034 c 0,41.03125 -33.26953,74.30469 -74.30078,74.30469 h -5.75782 c 5.38672,-10.28516 8.4375,-21.99609 8.4375,-34.40625 0,-40.16016 -31.87109,-72.86328 -71.70312,-74.23828 -4.4375,-73.28516 -65.27344,-131.36328 -139.67969,-131.36328 -10.03515,0 -19.8164,1.05859 -29.24219,3.0625 25.45313,-26.46875 61.23047,-42.94531 100.86329,-42.94531 74.41015,0 135.24609,58.0625 139.68359,131.36328 39.83203,1.35937 71.69922,34.0625 71.69922,74.22265 z m 0,0"
       fill="#565656"
       id="path3849" />
    <path
       d="m 407.3889,235.7159 c -3.49218,0 -6.65625,-2.3789 -7.50781,-5.92187 -1.29687,-5.39844 -3.07031,-10.71875 -5.27734,-15.81641 -1.69531,-3.91797 0.10547,-8.46484 4.02344,-10.16015 3.91406,-1.69532 8.46484,0.10937 10.15625,4.02343 2.55859,5.91016 4.61718,12.08203 6.12109,18.33985 1,4.15234 -1.55469,8.32422 -5.70703,9.32031 -0.60547,0.14453 -1.21094,0.21484 -1.8086,0.21484 z m 0,0"
       fill="#6d6d6d"
       id="path3851" />
    <path
       d="m 380.9475,187.45809 c -2.03125,0 -4.05469,-0.79687 -5.57422,-2.37891 -18.66797,-19.44921 -43.74609,-30.16015 -70.61719,-30.16015 -4.26562,0 -7.72656,-3.46094 -7.72656,-7.72656 0,-4.26954 3.46094,-7.72657 7.72656,-7.72657 31.11719,0 60.15625,12.39844 81.76563,34.91407 2.95703,3.07812 2.85547,7.96875 -0.22266,10.92578 -1.5,1.4375 -3.42578,2.15234 -5.35156,2.15234 z m 0,0"
       fill="#6d6d6d"
       id="path3853" />
    <path
       d="m 59.939685,286.51668 c 3.171875,-52.39453 46.660155,-93.91015 99.855465,-93.91015 42.90235,0 79.48829,27.0039 93.70704,64.9414 36.94531,0.44532 66.76171,30.51954 66.76171,67.56641 0,37.32813 -30.26171,67.58984 -67.58984,67.58984 -15.625,0 -174.824219,0 -190.878906,0 -29.335938,0 -53.1171879,-23.78125 -53.1171879,-53.11718 0,-28.71485 22.7851559,-52.08985 51.2617189,-53.07032 z m 0,0"
       id="path3855"
       fill="#a09d9c" />
    <path
       d="m 320.2639,325.11825 c 0,37.00781 -29.75781,67.07031 -66.65625,67.57031 11.0625,-12.03906 17.8086,-28.08203 17.8086,-45.70703 0,-37.04688 -29.8086,-67.11719 -66.76172,-67.56641 -14.21875,-37.92969 -50.80469,-64.94531 -93.71094,-64.94531 -5.07031,0 -10.04687,0.38281 -14.917968,1.10937 17.304688,-14.35156 39.527348,-22.96875 63.765628,-22.96875 42.90625,0 79.49219,26.9961 93.71094,64.94141 36.95312,0.44922 66.76171,30.50781 66.76171,67.56641 z m 0,0"
       id="path3857"
       fill="#82807f" />
  </g>
</svg>
