<?xml version="1.0" encoding="UTF-8" standalone="no"?>
<svg
   xmlns:dc="http://purl.org/dc/elements/1.1/"
   xmlns:cc="http://creativecommons.org/ns#"
   xmlns:rdf="http://www.w3.org/1999/02/22-rdf-syntax-ns#"
   xmlns:svg="http://www.w3.org/2000/svg"
   xmlns="http://www.w3.org/2000/svg"
   xmlns:sodipodi="http://sodipodi.sourceforge.net/DTD/sodipodi-0.dtd"
   xmlns:inkscape="http://www.inkscape.org/namespaces/inkscape"
   viewBox="-2 0 512 512"
   version="1.1"
   id="svg143"
   sodipodi:docname="overcast.svg"
   inkscape:version="1.0 (4035a4fb49, 2020-05-01)">
  <metadata
     id="metadata149">
    <rdf:RDF>
      <cc:Work
         rdf:about="">
        <dc:format>image/svg+xml</dc:format>
        <dc:type
           rdf:resource="http://purl.org/dc/dcmitype/StillImage" />
        <dc:title />
      </cc:Work>
    </rdf:RDF>
  </metadata>
  <defs
     id="defs147" />
  <sodipodi:namedview
     inkscape:document-rotation="0"
     pagecolor="#ffffff"
     bordercolor="#666666"
     borderopacity="1"
     objecttolerance="10"
     gridtolerance="10"
     guidetolerance="10"
     inkscape:pageopacity="0"
     inkscape:pageshadow="2"
     inkscape:window-width="827"
     inkscape:window-height="564"
     id="namedview145"
     showgrid="false"
     inkscape:zoom="0.75184088"
     inkscape:cx="256"
     inkscape:cy="207.7055"
     inkscape:window-x="0"
     inkscape:window-y="0"
     inkscape:window-maximized="0"
     inkscape:current-layer="svg143" />
  <path
     d="M 435.75391,224.46418 C 431.31641,151.17512 370.48437,93.104807 296.07812,93.104807 c -60.00781,0 -111.1875,37.773433 -131.07812,90.839843 -51.67578,0.625 -93.378906,42.68359 -93.378906,94.50781 0,52.21485 42.328126,94.54297 94.539066,94.54297 h 266.99609 c 41.03516,0 74.29687,-33.26562 74.29687,-74.29687 0,-40.16407 -31.87109,-72.86328 -71.69921,-74.23438 z m 0,0"
     fill="#6d6d6d"
     id="path83" />
  <path
     d="m 507.45703,298.69465 c 0,41.03125 -33.26953,74.30469 -74.30078,74.30469 h -5.75781 c 5.38672,-10.28516 8.4375,-21.9961 8.4375,-34.40625 0,-40.16016 -31.8711,-72.86328 -71.70313,-74.23828 -4.4375,-73.28516 -65.27344,-131.36328 -139.67969,-131.36328 -10.03515,0 -19.8164,1.05859 -29.24218,3.0625 25.45312,-26.46875 61.23047,-42.945317 100.86328,-42.945317 74.41015,0 135.24609,58.062497 139.68359,131.363277 39.83203,1.35938 71.69922,34.0625 71.69922,74.22266 z m 0,0"
     fill="#565656"
     id="path85" />
  <path
     d="m 398.71094,216.00715 c -3.49219,0 -6.65625,-2.37891 -7.50782,-5.92187 -1.29687,-5.39844 -3.07031,-10.71875 -5.27734,-15.81641 -1.69531,-3.91797 0.10547,-8.46484 4.02344,-10.16016 3.91406,-1.69531 8.46484,0.10938 10.15625,4.02344 2.55859,5.91016 4.61719,12.08203 6.12109,18.33984 1,4.15235 -1.55469,8.32422 -5.70703,9.32032 -0.60547,0.14453 -1.21094,0.21484 -1.80859,0.21484 z m 0,0"
     fill="#6d6d6d"
     id="path87" />
  <path
     d="m 372.26953,167.74934 c -2.03125,0 -4.05469,-0.79688 -5.57422,-2.37891 -18.66797,-19.44922 -43.74609,-30.16015 -70.61719,-30.16015 -4.26562,0 -7.72656,-3.46094 -7.72656,-7.72657 0,-4.26953 3.46094,-7.72656 7.72656,-7.72656 31.11719,0 60.15625,12.39844 81.76563,34.91406 2.95703,3.07813 2.85547,7.96875 -0.22266,10.92578 -1.5,1.4375 -3.42578,2.15235 -5.35156,2.15235 z m 0,0"
     fill="#6d6d6d"
     id="path89" />
  <path
     d="m 51.261719,266.80793 c 3.171875,-52.39453 46.660156,-93.91015 99.855471,-93.91015 42.90234,0 79.48828,27.0039 93.70703,64.9414 36.94531,0.44531 66.76172,30.51953 66.76172,67.56641 0,37.32812 -30.26172,67.58984 -67.58985,67.58984 -15.625,0 -174.824215,0 -190.878902,0 C 23.78125,372.99543 0,349.21418 0,319.87824 0,291.1634 22.785156,267.7884 51.261719,266.80793 Z m 0,0"
     fill="#a09d9c"
     id="path91" />
  <path
     d="m 311.58594,305.40949 c 0,37.00782 -29.75782,67.07032 -66.65625,67.57032 11.0625,-12.03907 17.80859,-28.08203 17.80859,-45.70703 0,-37.04688 -29.80859,-67.11719 -66.76172,-67.56641 -14.21875,-37.92969 -50.80469,-64.94531 -93.71094,-64.94531 -5.070308,0 -10.04687,0.38281 -14.917964,1.10937 17.304684,-14.35156 39.527344,-22.96875 63.765624,-22.96875 42.90625,0 79.49219,26.9961 93.71094,64.94141 36.95312,0.44922 66.76172,30.50781 66.76172,67.5664 z m 0,0"
     fill="#82807f"
     id="path93" />
</svg>
