<?xml version="1.0" encoding="UTF-8" standalone="no"?>
<svg
   xmlns:dc="http://purl.org/dc/elements/1.1/"
   xmlns:cc="http://creativecommons.org/ns#"
   xmlns:rdf="http://www.w3.org/1999/02/22-rdf-syntax-ns#"
   xmlns:svg="http://www.w3.org/2000/svg"
   xmlns="http://www.w3.org/2000/svg"
   xmlns:sodipodi="http://sodipodi.sourceforge.net/DTD/sodipodi-0.dtd"
   xmlns:inkscape="http://www.inkscape.org/namespaces/inkscape"
   viewBox="-2 0 512 512"
   version="1.1"
   id="svg3907"
   sodipodi:docname="scatteredcloud.svg"
   inkscape:version="1.0 (4035a4fb49, 2020-05-01)">
  <metadata
     id="metadata3913">
    <rdf:RDF>
      <cc:Work
         rdf:about="">
        <dc:format>image/svg+xml</dc:format>
        <dc:type
           rdf:resource="http://purl.org/dc/dcmitype/StillImage" />
        <dc:title />
      </cc:Work>
    </rdf:RDF>
  </metadata>
  <defs
     id="defs3911" />
  <sodipodi:namedview
     pagecolor="#ffffff"
     bordercolor="#666666"
     borderopacity="1"
     objecttolerance="10"
     gridtolerance="10"
     guidetolerance="10"
     inkscape:pageopacity="0"
     inkscape:pageshadow="2"
     inkscape:window-width="1406"
     inkscape:window-height="480"
     id="namedview3909"
     showgrid="false"
     inkscape:zoom="0.4609375"
     inkscape:cx="-293.9661"
     inkscape:cy="256"
     inkscape:window-x="1185"
     inkscape:window-y="602"
     inkscape:window-maximized="0"
     inkscape:current-layer="layer1"
     inkscape:document-rotation="0" />
  <g
     inkscape:groupmode="layer"
     id="layer1"
     inkscape:label="back">
    <g
       id="g160"
       transform="matrix(0.54661017,0,0,0.52705228,114.0678,121.07462)">
      <polygon
         id="polygon138"
         points="86.448,210.64 0,254.576 86.448,298.512 "
         style="fill:#f2b851" />
      <polygon
         id="polygon140"
         points="425.552,210.64 425.552,298.512 512,254.576 "
         style="fill:#f2b851" />
      <polygon
         id="polygon142"
         points="134.416,118.08 38.304,105.184 84.512,190.432 "
         style="fill:#f2b851" />
      <polygon
         id="polygon144"
         points="473.696,105.184 377.584,118.08 427.488,190.432 "
         style="fill:#f2b851" />
      <polygon
         id="polygon146"
         points="344.8,12.88 271.584,76.464 353.024,109.504 "
         style="fill:#f2b851" />
      <polygon
         id="polygon148"
         points="167.2,12.88 158.976,109.504 240.416,76.464 "
         style="fill:#f2b851" />
      <polygon
         id="polygon150"
         points="38.304,406.816 134.416,393.92 84.512,321.568 "
         style="fill:#f2b851" />
      <polygon
         id="polygon152"
         points="473.696,406.816 427.488,321.568 377.584,393.92 "
         style="fill:#f2b851" />
      <polygon
         id="polygon154"
         points="353.024,402.496 271.584,435.536 344.8,499.12 "
         style="fill:#f2b851" />
      <polygon
         id="polygon156"
         points="240.416,435.536 158.976,402.496 167.2,499.12 "
         style="fill:#f2b851" />
      <circle
         id="circle158"
         r="146.496"
         cy="256"
         cx="254.496"
         style="fill:#f2b851" />
    </g>
  </g>
  <g
     inkscape:groupmode="layer"
     id="layer2"
     inkscape:label="fore">
    <path
       d="m 32.090713,148.45737 c 1.86886,-31.37594 27.492093,-56.237167 58.834693,-56.237167 25.277994,0 46.834374,16.171037 55.212034,38.889517 21.76812,0.26668 39.3359,18.27632 39.3359,40.46147 0,22.35357 -17.83016,40.47549 -39.82383,40.47549 -9.20623,0 -103.006157,0 -112.465557,0 -17.28469,0 -31.29657,-14.24116 -31.29657,-31.80869 0,-17.19559 13.42498,-31.19348 30.20333,-31.78062 z m 0,0"
       id="path3855"
       inkscape:connector-curvature="0"
       style="fill:#cccccc;stroke-width:0.594" />
    <path
       style="fill:#999999;stroke-width:0.594"
       inkscape:connector-curvature="0"
       id="path3855-2"
       d="m 358.86937,176.03987 c 1.86886,-31.37594 27.49209,-56.23715 58.83469,-56.23715 25.27799,0 46.83437,16.17102 55.21203,38.8895 21.76812,0.26668 39.3359,18.27632 39.3359,40.46147 0,22.35357 -17.83016,40.47549 -39.82383,40.47549 -9.20623,0 -103.00615,0 -112.46555,0 -17.28469,0 -31.29657,-14.24116 -31.29657,-31.80869 0,-17.19559 13.42498,-31.19348 30.20333,-31.78062 z m 0,0" />
    <path
       d="m 146.13744,290.08555 c 1.86886,-31.37594 27.4921,-56.23715 58.8347,-56.23715 25.27799,0 46.83437,16.17102 55.21203,38.8895 21.76812,0.26668 39.3359,18.27632 39.3359,40.46147 0,22.35357 -17.83016,40.47549 -39.82383,40.47549 -9.20623,0 -103.00615,0 -112.46556,0 -17.28469,0 -31.29657,-14.24116 -31.29657,-31.80869 0,-17.19559 13.42498,-31.19348 30.20333,-31.78062 z m 0,0"
       id="path3855-2-1"
       inkscape:connector-curvature="0"
       style="fill:#b3b3b3;stroke-width:0.594" />
  </g>
</svg>
